<?xml version="1.0" encoding="UTF-8"?>
<svg id="Layer_1" xmlns="http://www.w3.org/2000/svg" viewBox="0 0 542.27 101.85">
  <defs>
    <style>
      .cls-1 {
        fill: #2d2d2d;
      }
    </style>
  </defs>
  <path class="cls-1" d="M72.73,49.38h20.82v39.95c-10.83,8.16-25.74,12.52-39.81,12.52C22.79,101.85,0,80.6,0,50.92S22.79,0,54.16,0c17.3,0,31.65,5.91,41.22,17.02l-14.63,13.5c-7.17-7.6-15.47-11.11-25.46-11.11-19.13,0-32.21,12.8-32.21,31.51s13.08,31.51,31.93,31.51c6.19,0,11.96-1.13,17.72-4.22v-28.84Z"/>
  <path class="cls-1" d="M108.45,50.92c0-29.26,22.79-50.92,53.88-50.92s53.88,21.52,53.88,50.92-22.93,50.92-53.88,50.92-53.88-21.66-53.88-50.92ZM193.14,50.92c0-18.71-13.22-31.51-30.81-31.51s-30.81,12.8-30.81,31.51,13.22,31.51,30.81,31.51,30.81-12.8,30.81-31.51Z"/>
  <path class="cls-1" d="M318.75,37.42c0,21.94-16.46,35.59-42.76,35.59h-19.83v27.15h-22.79c0-11.43,0-22.87,0-34.3,0-8.72,0-17.45,0-26.17,0-1.03-.36-7.18,0-15.32.24-5.35.35-8.03.9-9.39,3.63-9.04,16.63-12.23,21.75-12.77,1.56-.16,5.62-.41,8.53-.57,3.18-.18,6.41-.25,10.53,0,.3.02.57.04.91.07,9.78.91,42.76-.61,42.76,35.73ZM295.68,37.42c0-1.81.03-6.41-3.22-10.53-1.8-2.28-3.91-3.53-5.2-4.16-2.3-1.07-4.27-1.61-5.64-1.9-1.08-.23-2.46-.45-10.78-.58-3.64-.06-2.85-.07-4.76-.01-4.7.15-7.05.29-8.4,1.65-1.18,1.19-1.31,2.91-1.56,6.07-.13,1.65-.04,2.89,0,3.41.03.48.03,4.6.03,12.85,0,5.27-.04,5.43-.02,9.54.01,3.12.04,5.69.07,7.4,1.29-.88,3.04-2.1,4.71-3.3,1.94-1.4,2.92-2.1,3.1-2.26.23-.19.44-.37.78-.57,1.15-.67,2.3-.67,2.9-.67,2.49.02,4.94.11,5.84.13.24,0,2.02.04,4.06-.12.73-.06,3.5-.23,5.75-.9,2.09-.63,6.23-1.87,9.23-5.75,3.09-4.01,3.11-8.44,3.12-10.3Z"/>
  <path class="cls-1" d="M540.32,37.53c0,21.94-16.46,35.59-42.76,35.59h-19.83v27.15h-22.79c0-11.43,0-22.87,0-34.3,0-8.72,0-17.45,0-26.17,0-1.03-.36-7.18,0-15.32.24-5.35.35-8.03.9-9.39,3.63-9.04,16.63-12.23,21.75-12.77,1.56-.16,5.62-.41,8.53-.57,3.18-.18,6.41-.25,10.53,0,.3.02.57.04.91.07,9.78.91,42.76-.61,42.76,35.73ZM517.25,37.53c0-1.81.03-6.41-3.22-10.53-1.8-2.28-3.91-3.53-5.2-4.16-2.3-1.07-4.27-1.61-5.64-1.9-1.08-.23-2.46-.45-10.78-.58-3.64-.06-2.85-.07-4.76-.01-4.7.15-7.05.29-8.4,1.65-1.18,1.19-1.31,2.91-1.56,6.07-.13,1.65-.04,2.89,0,3.41.03.48.03,4.6.03,12.85,0,5.27-.04,5.43-.02,9.54.01,3.12.04,5.69.07,7.4,1.29-.88,3.04-2.1,4.71-3.3,1.94-1.4,2.92-2.1,3.1-2.26.23-.19.44-.37.78-.57,1.15-.67,2.3-.67,2.9-.67,2.49.02,4.94.11,5.84.13.24,0,2.02.04,4.06-.12.73-.06,3.5-.23,5.75-.9,2.09-.63,6.23-1.87,9.23-5.75,3.09-4.01,3.11-8.44,3.12-10.3Z"/>
  <path class="cls-1" d="M330.14,50.92c0-29.26,22.79-50.92,53.88-50.92s53.88,21.52,53.88,50.92-22.93,50.92-53.88,50.92-53.88-21.66-53.88-50.92ZM414.83,50.92c0-18.71-13.22-31.51-30.81-31.51s-30.81,12.8-30.81,31.51,13.22,31.51,30.81,31.51,30.81-12.8,30.81-31.51Z"/>
  <path class="cls-1" d="M522.4,67.48c-3.5-.32-6.81-1.19-9.85-2.53-3.78,2.76-8.1,4.78-12.65,5.81-.8.69-1.63,1.35-2.48,1.97h1.38l18.99,27.43h24.48l-22.09-31.65c.76-.32,1.49-.67,2.21-1.03Z"/>
</svg>